<svg width="145" height="133" viewBox="0 0 145 133" fill="none" xmlns="http://www.w3.org/2000/svg">
<path d="M144.793 39.3118V132.808L142.069 131.212L137.114 128.31H104.279C102.461 128.31 100.987 126.837 100.987 125.019C100.987 124.11 101.356 123.287 101.952 122.692C102.547 122.096 103.37 121.727 104.279 121.727H125.859L104.521 109.303H49.7814C47.9655 109.303 46.493 107.818 46.493 105.99C46.493 105.076 46.861 104.241 47.4561 103.64C48.0512 103.039 48.8735 102.665 49.7814 102.665H93.1154L71.6599 90.1729C70.8503 89.7067 70.3535 88.8419 70.3535 87.8968V81.9458H11.062C9.24548 81.9458 7.77301 80.4607 7.77301 78.6262C7.77301 77.7063 8.14163 76.8781 8.73673 76.283C9.33183 75.6813 10.1534 75.3074 11.062 75.3074H70.3535V55.7972H45.4868C43.671 55.7972 42.1985 54.3121 42.1985 52.4777C42.1985 51.5578 42.5664 50.7289 43.1615 50.1278C43.7566 49.5268 44.5789 49.1588 45.4868 49.1588H70.3535V30.2006H3.2885C1.47199 30.2006 -0.000488281 28.7155 -0.000488281 26.8751C-0.000488281 25.9612 0.368129 25.133 0.963229 24.5312C1.55833 23.9301 2.38058 23.5622 3.2885 23.5622H70.3535V7.53699H51.0088C49.1929 7.53699 47.7204 6.05189 47.7204 4.22342C47.7204 3.2969 48.0884 2.46867 48.6835 1.8676C49.2786 1.2725 50.1008 0.898563 51.0088 0.898563H76.0594C76.9979 0.898563 77.9669 1.13767 78.8755 1.65904L82.225 3.57319L144.793 39.3118Z" fill="#D61414"/>
</svg>
