<svg width="148" height="65" viewBox="0 0 148 65" fill="none" xmlns="http://www.w3.org/2000/svg">
<path d="M147.255 32.3453L91.2889 64.66L35.4577 32.3333H19.3774C17.5615 32.3333 16.089 30.8609 16.089 29.0384C16.089 28.1304 16.457 27.3082 17.0521 26.7131C17.6472 26.118 18.4694 25.75 19.3774 25.75H57.1277C58.0416 25.75 58.8639 25.3821 59.459 24.787C60.0541 24.1919 60.422 23.3637 60.422 22.4557C60.422 22.4444 60.422 22.4338 60.422 22.4225C60.4074 20.9408 59.1269 19.7804 57.6451 19.7804H3.76726C2.02712 19.7804 0.484247 18.4893 0.349419 16.7545C0.271047 15.7443 0.650289 14.8124 1.30251 14.1602C1.89761 13.5651 2.72584 13.1971 3.63376 13.1971H68.9381L68.9567 13.1852H78.5952C79.5031 13.1852 80.3313 12.8172 80.9264 12.2221C81.5215 11.627 81.8895 10.7988 81.8895 9.89089C81.8895 8.60836 81.1529 7.49189 80.0736 6.95191L58.9495 6.58396C57.1337 6.58396 55.6612 5.11149 55.6612 3.29563C55.6612 2.38173 56.0292 1.55948 56.6243 0.964381C57.2194 0.367953 58.0416 0 58.9495 0H92.4053V0.0365296L92.4731 0L147.256 32.3453H147.255Z" fill="#D61414"/>
</svg>
